<svg id="color" enable-background="new 0 0 24 24" height="512" viewBox="0 0 24 24" width="512" xmlns="http://www.w3.org/2000/svg"><path d="m21 1h-18c-1.654 0-3 1.346-3 3v16c0 1.654 1.346 3 3 3h18c1.654 0 3-1.346 3-3v-16c0-1.654-1.346-3-3-3z" fill="#607d8b"/><path d="m21 21h-18c-.551 0-1-.448-1-1v-14h20v14c0 .552-.449 1-1 1z" fill="#fff"/><path d="m17.12 19h-10.24c-.365 0-.676-.262-.739-.621l-1.13-6.5c-.047-.27.056-.542.269-.713.212-.172.501-.215.754-.11l3.065 1.252 2.25-3.931c.268-.467 1.034-.467 1.302 0l2.25 3.931 3.065-1.252c.253-.104.541-.062.754.11.212.171.315.443.269.713l-1.13 6.5c-.063.359-.375.621-.739.621z" fill="#ffc107"/><path d="m12 1h-9c-1.654 0-3 1.346-3 3v16c0 1.654 1.346 3 3 3h9v-2h-9c-.551 0-1-.448-1-1v-14h10z" fill="#546d79"/><path d="m12 6h-10v14c0 .552.449 1 1 1h9v-2h-5.12c-.365 0-.676-.262-.739-.621l-1.13-6.5c-.047-.27.056-.542.269-.713.135-.11.302-.167.47-.167.096 0 .192.019.284.056l3.065 1.252 2.25-3.931c.134-.233.392-.35.651-.35z" fill="#dedede"/><path d="m12 8.027c-.259 0-.517.117-.651.35l-2.25 3.931-3.065-1.252c-.092-.038-.188-.056-.284-.056-.168 0-.335.057-.47.167-.212.171-.315.443-.269.713l1.13 6.5c.063.358.375.62.739.62h5.12z" fill="#dea806"/></svg>